<svg version="1.1" id="Layer_1" xmlns="http://www.w3.org/2000/svg" xmlns:xlink="http://www.w3.org/1999/xlink" x="0px" y="0px"
	 width="100%" viewBox="0 0 500 500" enable-background="new 0 0 500 500" xml:space="preserve">
<path fill="#000000" opacity="1.000000" stroke="none" 
	d="
M500.750000,500.750000 
	C334.000000,501.000000 167.500000,501.000000 1.000000,501.000000 
	C1.000000,334.333344 1.000000,167.666672 1.000000,1.000000 
	C167.666672,1.000000 334.333344,1.000000 501.000000,1.000000 
	C501.000000,167.500000 501.000000,334.000000 500.750000,500.750000 
M292.039886,102.250938 
	C292.039886,102.250938 292.250641,102.151360 292.250641,102.151360 
	C292.250641,102.151360 292.182343,101.924675 291.951477,101.596535 
	C291.574463,101.602684 291.197449,101.608833 290.820435,101.614990 
	C291.194122,101.802498 291.567841,101.990005 292.039886,102.250938 
M104.032440,315.063416 
	C103.083961,314.256165 102.135475,313.448944 101.186996,312.641693 
	C100.673523,313.076843 100.160057,313.511993 99.646591,313.947144 
	C100.701836,315.556427 101.757088,317.165710 102.812340,318.774994 
	C103.308243,317.702484 103.804153,316.629944 104.032440,315.063416 
M98.394798,307.938965 
	C98.790703,307.952576 99.186600,307.966217 99.582504,307.979828 
	C99.521263,307.704102 99.460022,307.428375 99.398788,307.152649 
	C99.043205,307.319611 98.687622,307.486603 98.394798,307.938965 
M269.997284,399.685242 
	C270.080048,399.516876 270.162811,399.348480 270.245575,399.180115 
	C270.110565,399.311279 269.975555,399.442413 269.997284,399.685242 
M355.490509,142.409027 
	C355.490509,142.409027 355.552246,142.434570 355.490509,142.409027 
M353.131134,131.254669 
	C353.131134,131.254669 353.277496,131.077118 353.277496,131.077118 
	C353.277496,131.077118 353.074219,131.182510 353.131134,131.254669 
M271.321381,394.331757 
	C271.121368,394.408142 270.921356,394.484558 270.721344,394.560944 
	C270.942535,394.556824 271.163727,394.552734 271.321381,394.331757 
M108.533760,303.961853 
	C108.533760,303.961853 108.529617,304.001648 108.533760,303.961853 
M113.445709,311.048798 
	C113.445709,311.048798 113.450119,310.985291 113.445709,311.048798 
M352.486694,142.476089 
	C352.486694,142.476089 352.498901,142.520599 352.486694,142.476089 
M354.485962,144.460724 
	C354.485962,144.460724 354.509766,144.519760 354.485962,144.460724 
M109.528091,301.487274 
	C109.528091,301.487274 109.482742,301.501038 109.528091,301.487274 
M101.491371,310.461792 
	C101.491371,310.461792 101.513748,310.518799 101.491371,310.461792 
M112.450531,316.505463 
	C112.450531,316.505463 112.513519,316.477936 112.450531,316.505463 
M105.459930,321.509094 
	C105.459930,321.509094 105.513947,321.489441 105.459930,321.509094 
z"/>
<path fill="#050505" opacity="1.000000" stroke="none" 
	d="
M104.166245,315.310425 
	C103.804153,316.629944 103.308243,317.702484 102.812340,318.774994 
	C101.757088,317.165710 100.701836,315.556427 99.646591,313.947144 
	C100.160057,313.511993 100.673523,313.076843 101.186996,312.641693 
	C102.135475,313.448944 103.083961,314.256165 104.166245,315.310425 
z"/>
<path fill="#050505" opacity="1.000000" stroke="none" 
	d="
M98.363419,307.796265 
	C98.687622,307.486603 99.043205,307.319611 99.398788,307.152649 
	C99.460022,307.428375 99.521263,307.704102 99.582504,307.979828 
	C99.186600,307.966217 98.790703,307.952576 98.363419,307.796265 
z"/>
<path fill="#171717" opacity="1.000000" stroke="none" 
	d="
M269.918915,399.629395 
	C269.975555,399.442413 270.110565,399.311279 270.245575,399.180115 
	C270.162811,399.348480 270.080048,399.516876 269.918915,399.629395 
z"/>
<path fill="#060606" opacity="1.000000" stroke="none" 
	d="
M355.521362,142.421799 
	C355.552246,142.434570 355.490509,142.409027 355.521362,142.421799 
z"/>
<path fill="#060606" opacity="1.000000" stroke="none" 
	d="
M353.102661,131.218597 
	C353.074219,131.182510 353.277496,131.077118 353.277496,131.077118 
	C353.277496,131.077118 353.131134,131.254669 353.102661,131.218597 
z"/>
<path fill="#171717" opacity="1.000000" stroke="none" 
	d="
M271.353149,394.440186 
	C271.163727,394.552734 270.942535,394.556824 270.721344,394.560944 
	C270.921356,394.484558 271.121368,394.408142 271.353149,394.440186 
z"/>
<path fill="#0E0E0E" opacity="1.000000" stroke="none" 
	d="
M291.941528,102.177521 
	C291.567841,101.990005 291.194122,101.802498 290.820435,101.614990 
	C291.197449,101.608833 291.574463,101.602684 292.004700,101.821899 
	C292.057922,102.047264 291.941528,102.177521 291.941528,102.177521 
z"/>
<path fill="#050505" opacity="1.000000" stroke="none" 
	d="
M108.531693,303.981750 
	C108.529617,304.001648 108.533760,303.961853 108.531693,303.981750 
z"/>
<path fill="#050505" opacity="1.000000" stroke="none" 
	d="
M113.447914,311.017029 
	C113.450119,310.985291 113.445709,311.048798 113.447914,311.017029 
z"/>
<path fill="#060606" opacity="1.000000" stroke="none" 
	d="
M352.492798,142.498352 
	C352.498901,142.520599 352.486694,142.476089 352.492798,142.498352 
z"/>
<path fill="#060606" opacity="1.000000" stroke="none" 
	d="
M354.497864,144.490234 
	C354.509766,144.519760 354.485962,144.460724 354.497864,144.490234 
z"/>
<path fill="#050505" opacity="1.000000" stroke="none" 
	d="
M109.505417,301.494141 
	C109.482742,301.501038 109.528091,301.487274 109.505417,301.494141 
z"/>
<path fill="#050505" opacity="1.000000" stroke="none" 
	d="
M101.502563,310.490295 
	C101.513748,310.518799 101.491371,310.461792 101.502563,310.490295 
z"/>
<path fill="#0E0E0E" opacity="1.000000" stroke="none" 
	d="
M292.120117,101.985970 
	C292.182343,101.924675 292.250641,102.151360 292.250641,102.151360 
	C292.250641,102.151360 292.039886,102.250938 291.990723,102.214233 
	C291.941528,102.177521 292.057922,102.047264 292.120117,101.985970 
z"/>
<path fill="#050505" opacity="1.000000" stroke="none" 
	d="
M112.482025,316.491699 
	C112.513519,316.477936 112.450531,316.505463 112.482025,316.491699 
z"/>
<path fill="#050505" opacity="1.000000" stroke="none" 
	d="
M105.486938,321.499268 
	C105.513947,321.489441 105.459930,321.509094 105.486938,321.499268 
z"/>
</svg>